Coordinates
version=1
nRows=21
nColumns=33
inDegrees=yes

Units are S.I. units (second, meters, Newtons, ...)
Angles are in degrees.

endheader
time	ground_thorax_rot_x	ground_thorax_rot_y	ground_thorax_rot_z	ground_thorax_tx	ground_thorax_ty	ground_thorax_tz	clav_prot_r	clav_elev_r	scapula_abduction_r	scapula_elevation_r	scapula_upward_rot_r	scapula_winging_r	shoulder_elv_r	plane_of_elev_r	axial_rot_r	elbow_flexion_r	pro_sup_r	wrist_flex_r	wrist_dev_r	clav_prot_l	clav_elev_l	scapula_abduction_l	scapula_elevation_l	scapula_upward_rot_l	scapula_winging_l	shoulder_elv_l	plane_of_elev_l	axial_rot_l	elbow_flexion_l	pro_sup_l	wrist_flex_l	wrist_dev_l
      1.95000000	      2.02381197	     -0.60088287	     -8.93562689	     -0.08044282	      1.04742645	      0.00439053	    -11.71974994	     -5.05354632	     -8.47644531	     -0.99940251	     11.79024190	     -2.00951949	     63.04416448	    -37.55199599	     56.61232833	     85.47501780	    -12.27958406	     12.08237037	     15.23744889	     -5.39089621	     -5.63678928	      1.92507897	     -2.06004988	     -1.33331748	     -0.20736436	     58.98474124	    -39.91854348	    -38.83823586	     77.87368517	    -26.06922673	      2.81139286	    -11.88424979
      1.96000000	      2.03213945	     -0.54454774	     -8.89830868	     -0.08066634	      1.04725523	      0.00420811	    -11.54562792	     -5.30593547	     -8.29180107	     -1.11449410	     11.47152655	     -1.88094560	     62.12525665	    -36.62451094	     55.33216092	     84.29563038	    -13.66245612	     11.96699716	     14.68010476	     -5.20622420	     -6.11722640	      1.67351065	     -1.77978824	     -1.74274971	     -0.35571339	     58.47652726	    -38.38304688	    -37.65820270	     76.60651864	    -27.41972465	      2.80916231	    -10.67161352
      1.97000000	      2.09736763	     -0.43376267	     -8.90061878	     -0.08037524	      1.04781041	      0.00401907	    -11.48043030	     -6.02876630	     -8.14271066	     -1.68214225	     11.25469316	     -1.59242120	     61.63095066	    -36.12565911	     54.30008996	     83.17581539	    -14.00387270	     11.80228278	     14.27477271	     -5.17353093	     -7.06353771	      1.51469677	     -0.98037085	     -1.88837459	     -0.65115037	     58.05889913	    -37.31382887	    -36.75311072	     75.12418412	    -27.76413444	      2.58079241	    -10.17132090
      1.98000000	      2.05127878	     -0.49564725	     -8.79109717	     -0.08119113	      1.04688080	      0.00388101	    -11.13979875	     -5.88255242	     -7.92309374	     -1.33752043	     10.62037241	     -1.55791480	     60.29545337	    -34.49231003	     52.65247883	     81.47748194	    -15.90864865	     11.67187021	     13.63566706	     -4.84640408	     -7.10641988	      1.21266228	     -1.21528634	     -2.62229247	     -0.68588077	     57.38077254	    -35.22105457	    -34.96041952	     73.55024051	    -29.20427204	      3.03653749	     -8.23188165
      1.99000000	      2.07076380	     -0.46131105	     -8.75544381	     -0.08148414	      1.04675304	      0.00374952	    -10.97770006	     -6.24480826	     -7.77946685	     -1.52465384	     10.22130663	     -1.37031478	     59.34989646	    -33.37613602	     51.35226777	     79.81999473	    -17.62685526	     11.41737569	     13.30639019	     -4.60124969	     -7.67293380	      0.89139939	     -0.90026793	     -3.14721601	     -0.86862751	     56.88112767	    -33.64460923	    -33.46741333	     71.80040649	    -30.09297506	      3.27028163	     -6.98502030
      2.00000000	      2.09205721	     -0.44362199	     -8.69207044	     -0.08176976	      1.04664646	      0.00365430	    -10.79921186	     -6.65210559	     -7.65485620	     -1.71694535	      9.71747467	     -1.14338977	     58.47847235	    -32.19647911	     50.01475393	     78.06578262	    -19.06262078	     11.09452011	     13.01657677	     -4.39772154	     -8.25030159	      0.62849305	     -0.55759344	     -3.62596144	     -1.06815815	     56.36424246	    -32.08283733	    -32.00075905	     69.86668047	    -30.64842941	      3.53954457	     -5.80885009
      2.01000000	      2.10479571	     -0.42803937	     -8.62748746	     -0.08206904	      1.04654775	      0.00356802	    -10.61419943	     -7.09624247	     -7.53460010	     -1.92768133	      9.16954031	     -0.89354478	     57.62520658	    -30.98650507	     48.60370921	     76.18750480	    -20.37083051	     10.69328762	     12.87162621	     -4.19263562	     -8.82044024	      0.36413438	     -0.21859520	     -4.09810660	     -1.26674638	     55.83803757	    -30.49655925	    -30.49892874	     67.77018695	    -31.05131349	      3.95409114	     -4.59911715
      2.02000000	      2.16900856	     -0.39525778	     -8.68408078	     -0.08189195	      1.04710004	      0.00349015	    -10.52557774	     -7.99320565	     -7.39843497	     -2.61141368	      8.82272031	     -0.48963174	     57.06280834	    -30.26716339	     47.35232607	     74.42477052	    -20.69707176	     10.34472621	     12.54395216	     -4.13003778	     -9.83679691	      0.20888299	      0.62403517	     -4.31278178	     -1.65018169	     55.41525762	    -29.41447153	    -29.39928326	     65.58090521	    -31.20073434	      3.78255205	     -4.01910191
      2.03000000	      2.18251068	     -0.40269707	     -8.77481118	     -0.08190212	      1.04733215	      0.00344768	    -10.38555350	     -8.72530601	     -7.28424435	     -3.10035171	      8.32980879	     -0.11599017	     56.30103289	    -29.20640568	     45.78769720	     72.41086793	    -21.18762057	      9.89514093	     12.37496244	     -4.03506699	    -10.64211224	      0.06713176	      1.24073752	     -4.62478590	     -1.98323518	     54.93682046	    -28.02897859	    -28.03350901	     63.21341171	    -31.47755478	      3.92411439	     -3.13811025
      2.04000000	      2.10274540	     -0.43669815	     -8.47841605	     -0.08304295	      1.04623983	      0.00329825	     -9.98927691	     -8.53511958	     -7.07073370	     -2.62790959	      7.45269721	     -0.09452085	     55.02035418	    -27.21829836	     43.78714473	     69.80066910	    -22.57033253	      9.11843129	     13.17095851	     -3.64191460	    -10.49291343	     -0.34841087	      0.82732456	     -5.35331758	     -1.87711358	     54.28825278	    -25.66059016	    -26.29487404	     60.55261571	    -32.13648563	      5.62192437	     -1.07479428
      2.05000000	      2.13949020	     -0.42387565	     -8.47015933	     -0.08289469	      1.04685329	      0.00332933	     -9.90347029	     -9.44891924	     -6.96880671	     -3.31836183	      7.06861214	      0.34743884	     54.38054030	    -26.47985189	     42.39564417	     67.69618617	    -22.85689664	      8.70184383	     12.93640827	     -3.53739060	    -11.49391240	     -0.53875890	      1.64437977	     -5.60788679	     -2.28631673	     53.90808523	    -24.63579747	    -25.18417082	     57.95626485	    -32.25066211	      5.54920469	     -0.42946852
      2.06000000	      2.07856434	     -0.38024346	     -8.18531617	     -0.08358505	      1.04617240	      0.00318935	     -9.66391522	     -9.48619370	     -6.89462186	     -3.10954696	      6.36365820	      0.45477905	     53.08964671	    -24.80372192	     40.28162810	     64.84605559	    -23.67749066	      8.00126372	     13.78039491	     -3.21089332	    -11.55896878	     -0.88543169	      1.44903767	     -6.27609677	     -2.27683409	     53.32727803	    -22.49116662	    -23.57313071	     55.06868345	    -32.70957642	      7.04415747	      1.11154624
      2.07000000	      2.07546615	     -0.34680995	     -8.09665424	     -0.08390918	      1.04615194	      0.00317037	     -9.50138022	     -9.96735538	     -6.75201403	     -3.39262263	      5.93049317	      0.70977003	     52.08853373	    -23.61387047	     38.51002051	     62.19186148	    -23.96506438	      7.51019207	     14.06925808	     -2.92670278	    -12.10157597	     -1.26436099	      1.76036387	     -6.75499618	     -2.45503361	     52.94436847	    -20.89916402	    -22.28290328	     52.15967362	    -32.77869622	      7.72019037	      2.01352766
      2.08000000	      2.05925097	     -0.35351705	     -7.97172401	     -0.08414126	      1.04616357	      0.00319081	     -9.35447046	    -10.45877594	     -6.65059377	     -3.67751253	      5.47087241	      0.98507852	     51.11785022	    -22.40306026	     36.77926667	     59.46764874	    -23.93703645	      7.05305542	     14.19930529	     -2.69729064	    -12.64274921	     -1.56043911	      2.08897408	     -7.18967835	     -2.65610487	     52.58086146	    -19.39466782	    -21.16251438	     49.18632316	    -32.77912228	      8.17273127	      2.70191740
      2.09000000	      2.04806479	     -0.36913082	     -7.87469326	     -0.08447422	      1.04607960	      0.00323204	     -9.18449482	    -10.89252430	     -6.50213863	     -3.92052117	      5.04370624	      1.22455814	     50.15920926	    -21.10573812	     35.09887511	     56.62225951	    -23.68770687	      6.65975322	     14.29567752	     -2.43455121	    -13.11126949	     -1.89942328	      2.34246681	     -7.64532011	     -2.81616291	     52.27148152	    -17.81380422	    -20.17064037	     46.10897758	    -32.72111139	      8.60558473	      3.23433083
      2.10000000	      2.09548742	     -0.43476602	     -8.00860479	     -0.08455840	      1.04649862	      0.00330676	     -9.00450936	    -11.69142601	     -6.23945652	     -4.53421235	      4.73391919	      1.60957851	     49.59360800	    -20.11565961	     33.81085352	     53.94439257	    -23.49399763	      6.24691482	     13.92215954	     -2.21031954	    -13.93867476	     -2.26586490	      3.01587647	     -7.86228150	     -3.12893638	     52.10387828	    -16.73942905	    -19.49109485	     43.22492500	    -32.64317801	      8.45518499	      3.61963785
      2.11000000	      2.10262615	     -0.50125038	     -8.03445876	     -0.08470747	      1.04663732	      0.00342469	     -8.82874785	    -12.23572896	     -6.05018399	     -4.89585076	      4.35709145	      1.89885029	     48.84364329	    -18.88754648	     32.44105348	     51.07517936	    -23.22563893	      5.92968804	     13.58007836	     -1.96517277	    -14.49086565	     -2.60787609	      3.39085908	     -8.20310969	     -3.33226542	     51.91928681	    -15.40995069	    -18.81966079	     40.20269165	    -32.61283356	      8.48680108	      3.86705366
      2.12000000	      2.06536737	     -0.52744190	     -7.63152804	     -0.08513061	      1.04623859	      0.00368582	     -8.67944299	    -12.21649766	     -5.98575696	     -4.73357946	      3.94424855	      1.92758086	     47.66293263	    -17.40556618	     31.11947263	     47.96142367	    -22.67177274	      5.97682902	     13.29538162	     -1.63175833	    -14.53411324	     -2.96359807	      3.15728852	     -8.90922596	     -3.28604594	     51.69448193	    -13.61085677	    -18.25209584	     36.85145061	    -32.62084008	      8.89202632	      3.65293085
      2.13000000	      2.10021818	     -0.57988387	     -7.54040358	     -0.08538044	      1.04636107	      0.00391799	     -8.49977922	    -12.58741660	     -5.70457137	     -5.01429159	      3.79565047	      2.08634893	     46.84833255	    -16.37482733	     30.25695514	     45.07609847	    -22.20233566	      5.97601333	     12.64861046	     -1.27583160	    -14.98827889	     -3.45001622	      3.38824754	     -9.38130952	     -3.39793166	     51.69856439	    -12.39278837	    -18.03089787	     33.83447030	    -32.61354664	      8.81820775	      3.36677422
      2.14000000	      2.15598846	     -0.69900269	     -7.65065026	     -0.08551370	      1.04670317	      0.00414329	     -8.23221952	    -13.16737575	     -5.23560582	     -5.49671224	      3.68852951	      2.32201186	     46.39199207	    -15.54307440	     29.76144592	     42.41229393	    -21.99572800	      5.74960174	     11.95312551	     -0.93428197	    -15.60431004	     -3.99024136	      3.86472772	     -9.59719664	     -3.56553817	     51.76537093	    -11.59532624	    -18.03829964	     31.20602224	    -32.63525069	      8.51494536	      3.33404027
      2.15000000	      2.19427553	     -0.73453705	     -7.38664196	     -0.08564727	      1.04654728	      0.00453281	     -8.11694158	    -13.13902139	     -5.08702016	     -5.43114437	      3.58512559	      2.29217828	     45.33093164	    -14.39106278	     29.35798297	     39.44898750	    -21.93092298	      6.25820429	     10.70487122	     -0.59876131	    -15.77129585	     -4.36977064	      3.75301923	    -10.27717801	     -3.56463490	     51.81354811	    -10.26982703	    -18.27770890	     28.25477285	    -33.18226502	      8.20347668	      2.26078058
